Ian Anderson & Jethro Tull - Best Of Ian Anderson & Jethro Tull - 2009

R&M Records Ltd, 0130-2

FLAC, image+.cue, lossless

01. Living in the Past (I. Anderson) 3:26
02. Aqualung (I. Anderson) 7:42
03. Boris Dancing (I. Anderson)3:04
04. Locomotive Breath (I. Anderson) 5:10
05. In the Grip of Stonger Stuff (I. Anderson) 2:46
06. Circular Breathing (I. Anderson) 3:41
07. The Habanero Reel (I. Anderson) 3:56
08. Cross-Eyed Mary (I. Anderson) 4:25
09. Thick As a Brick (I. Anderson) 4:21
10. Bouree (I. Anderson) 3:10
11. Mother Goose (I. Anderson) 5:29
12. My God (I. Anderson) 8:12
13. Songs from the Wood (I. Anderson) 4:51
14. Wond'ring Aloud (I. Anderson) 1:49
15. Hymn 43 (I. Anderson) 4:11
16. The Stormont Shuffle (I. Anderson) 3:09
17. Old Black Cat (I. Anderson) 3:37
18. The Secret Language of Birds, Pt.II (I. Anderson) 3:02
19. Nothing @ All (I. Anderson) 0:55
20. In the Olive Garden (I. Anderson) 2:48



Exact Audio Copy V0.99 prebeta 5 from 4. May 2009

EAC extraction logfile from 22. September 2010, 13:15

Ian Anderson & Jethro Tull / Ian Anderson & Jethro Tull - Best Of

Used drive  : ASUS    DRW-2014L1T   Adapter: 4  ID: 2

Read mode               : Secure
Utilize accurate stream : Yes
Defeat audio cache      : Yes
Make use of C2 pointers : No

Read offset correction                      : 6
Overread into Lead-In and Lead-Out          : No
Fill up missing offset samples with silence : Yes
Delete leading and trailing silent blocks   : No
Null samples used in CRC calculations       : Yes
Used interface                              : Native Win32 interface for Win NT & 2000

Used output format              : User Defined Encoder
Selected bitrate                : 768 kBit/s
Quality                         : High
Add ID3 tag                     : No
Command line compressor         : F:\Program Files\Exact Audio Copy\FLAC\FLAC.EXE
Additional command line options : -T "DATE=%y" -T "GENRE=%m" -8 -V %s

TOC of the extracted CD

     Track |   Start  |  Length  | Start sector | End sector
    ---------------------------------------------------------
        1  |  0:00.00 |  3:26.49 |         0    |    15498
        2  |  3:26.49 |  7:42.07 |     15499    |    50155
        3  | 11:08.56 |  3:04.63 |     50156    |    64018
        4  | 14:13.44 |  5:10.40 |     64019    |    87308
        5  | 19:24.09 |  2:46.27 |     87309    |    99785
        6  | 22:10.36 |  3:41.50 |     99786    |   116410
        7  | 25:52.11 |  3:56.38 |    116411    |   134148
        8  | 29:48.49 |  4:25.73 |    134149    |   154096
        9  | 34:14.47 |  4:21.34 |    154097    |   173705
       10  | 38:36.06 |  3:10.16 |    173706    |   187971
       11  | 41:46.22 |  5:29.13 |    187972    |   212659
       12  | 47:15.35 |  8:12.22 |    212660    |   249581
       13  | 55:27.57 |  4:51.28 |    249582    |   271434
       14  | 60:19.10 |  1:49.47 |    271435    |   279656
       15  | 62:08.57 |  4:11.54 |    279657    |   298535
       16  | 66:20.36 |  3:09.54 |    298536    |   312764
       17  | 69:30.15 |  3:37.66 |    312765    |   329105
       18  | 73:08.06 |  3:02.64 |    329106    |   342819
       19  | 76:10.70 |  0:55.20 |    342820    |   346964
       20  | 77:06.15 |  2:48.34 |    346965    |   359598

Range status and errors

Selected range

     Filename W:\EAC\Ian Anderson & Jethro Tull - Ian Anderson & Jethro Tull - Best Of\Ian Anderson & Jethro Tull - Ian Anderson & Jethro Tull - Best Of.wav

     Peak level 100.0 %
     Range quality 99.9 %
     Copy CRC 6B65A117
     Copy OK

No errors occurred

AccurateRip summary

Track  1  not present in database
Track  2  not present in database
Track  3  not present in database
Track  4  not present in database
Track  5  not present in database
Track  6  not present in database
Track  7  not present in database
Track  8  not present in database
Track  9  not present in database
Track 10  not present in database
Track 11  not present in database
Track 12  not present in database
Track 13  not present in database
Track 14  not present in database
Track 15  not present in database
Track 16  not present in database
Track 17  not present in database
Track 18  not present in database
Track 19  not present in database
Track 20  not present in database

None of the tracks are present in the AccurateRip database

End of status report